<svg xmlns="http://www.w3.org/2000/svg" width="128" height="128" viewBox="0 0 128 128">
  <defs>
    <linearGradient id="tile-bg" x1="18" y1="10" x2="112" y2="122" gradientUnits="userSpaceOnUse">
      <stop offset="0" stop-color="#152F37" />
      <stop offset="0.58" stop-color="#10262E" />
      <stop offset="1" stop-color="#0A161D" />
    </linearGradient>
    <linearGradient id="tile-sheen" x1="22" y1="12" x2="98" y2="108" gradientUnits="userSpaceOnUse">
      <stop offset="0" stop-color="#F4FFF8" stop-opacity="0.18" />
      <stop offset="0.48" stop-color="#7BE3BA" stop-opacity="0.06" />
      <stop offset="1" stop-color="#000000" stop-opacity="0" />
    </linearGradient>
    <linearGradient id="prompt" x1="38" y1="54" x2="91" y2="91" gradientUnits="userSpaceOnUse">
      <stop offset="0" stop-color="#F9FFE4" />
      <stop offset="0.46" stop-color="#9AF0C9" />
      <stop offset="1" stop-color="#62D6B5" />
    </linearGradient>
    <linearGradient id="leaf" x1="31" y1="25" x2="98" y2="92" gradientUnits="userSpaceOnUse">
      <stop offset="0" stop-color="#D8EC73" />
      <stop offset="0.55" stop-color="#73D36D" />
      <stop offset="1" stop-color="#2ABAA7" />
    </linearGradient>
    <linearGradient id="leaf-deep" x1="48" y1="38" x2="101" y2="97" gradientUnits="userSpaceOnUse">
      <stop offset="0" stop-color="#84C65E" />
      <stop offset="1" stop-color="#178C8E" />
    </linearGradient>
    <linearGradient id="wood" x1="46" y1="23" x2="82" y2="101" gradientUnits="userSpaceOnUse">
      <stop offset="0" stop-color="#D7B879" />
      <stop offset="0.54" stop-color="#9B7444" />
      <stop offset="1" stop-color="#5B3B26" />
    </linearGradient>
    <filter id="tile-shadow" x="-18%" y="-18%" width="136%" height="140%">
      <feDropShadow dx="0" dy="5" stdDeviation="4.2" flood-color="#031017" flood-opacity="0.38" />
    </filter>
    <filter id="mark-glow" x="-35%" y="-35%" width="170%" height="170%">
      <feDropShadow dx="0" dy="0" stdDeviation="3.6" flood-color="#72E4BD" flood-opacity="0.44" />
    </filter>
  </defs>

  <rect x="7" y="7" width="114" height="114" rx="27" fill="url(#tile-bg)" />
  <rect x="9.5" y="9.5" width="109" height="109" rx="24" fill="url(#tile-sheen)" />
  <rect x="8.5" y="8.5" width="111" height="111" rx="25" fill="none" stroke="#354F58" stroke-opacity="0.7" stroke-width="2" />

  <path d="M14 35H114" stroke="#334852" stroke-width="2.6" stroke-linecap="round" opacity="0.82" />
  <circle cx="25" cy="23" r="4.4" fill="#66DEC1" />
  <circle cx="39" cy="23" r="4.4" fill="#94D565" />
  <circle cx="53" cy="23" r="4.4" fill="#FFC45D" />

  <g filter="url(#tile-shadow)">
    <rect x="21" y="42" width="86" height="58" rx="15" fill="#0A151B" opacity="0.78" />

    <path d="M64 43C64 36 65 29 68 20" fill="none" stroke="url(#wood)" stroke-width="5.6" stroke-linecap="round" />
    <path d="M63 47C56 39 50 32 41 25" fill="none" stroke="url(#wood)" stroke-width="4.2" stroke-linecap="round" />
    <path d="M66 47C74 39 82 31 93 24" fill="none" stroke="url(#wood)" stroke-width="4.2" stroke-linecap="round" />
    <path d="M56 95C59 86 62 77 64 67" fill="none" stroke="url(#wood)" stroke-width="5.4" stroke-linecap="round" opacity="0.86" />
    <path d="M72 95C69 86 66 77 64 67" fill="none" stroke="url(#wood)" stroke-width="5.4" stroke-linecap="round" opacity="0.86" />

    <path d="M31 28C44 24 55 30 60 43C47 46 36 41 31 28Z" fill="url(#leaf)" />
    <path d="M97 25C101 38 96 49 83 54C80 40 86 30 97 25Z" fill="url(#leaf)" />
    <path d="M72 34C85 33 95 40 98 53C85 57 75 49 72 34Z" fill="url(#leaf-deep)" />
    <path d="M46 41C53 53 51 65 40 73C35 60 38 49 46 41Z" fill="url(#leaf-deep)" opacity="0.96" />
    <path d="M83 82C94 78 104 82 109 92C98 97 88 92 83 82Z" fill="url(#leaf)" opacity="0.92" />
    <path d="M20 91C30 82 42 81 52 89C43 98 30 99 20 91Z" fill="url(#leaf-deep)" opacity="0.86" />
  </g>

  <g filter="url(#mark-glow)">
    <path
      d="M42 56L57 71L42 86"
      fill="none"
      stroke="url(#prompt)"
      stroke-width="10"
      stroke-linecap="round"
      stroke-linejoin="round"
    />
    <path d="M69 86H90" stroke="url(#prompt)" stroke-width="10" stroke-linecap="round" />
  </g>
</svg>
